<svg width="40" height="40" viewBox="0 0 40 40" fill="none" xmlns="http://www.w3.org/2000/svg">
<g clip-path="url(#clip0_1_473)">
<path d="M0.5 20C0.5 9.23045 9.23045 0.5 20 0.5C30.7696 0.5 39.5 9.23045 39.5 20C39.5 30.7696 30.7696 39.5 20 39.5C9.23045 39.5 0.5 30.7696 0.5 20Z" fill="#0052B4" stroke="#0052B4"/>
<path fill-rule="evenodd" clip-rule="evenodd" d="M19.9998 9.16699C14.0168 9.16699 9.1665 14.0172 9.1665 20.0003C9.1665 25.9834 14.0168 30.8337 19.9998 30.8337C25.9829 30.8337 30.8332 25.9834 30.8332 20.0003C30.8332 14.0172 25.9829 9.16699 19.9998 9.16699ZM7.9165 20.0003C7.9165 13.3269 13.3264 7.91699 19.9998 7.91699C26.6733 7.91699 32.0832 13.3269 32.0832 20.0003C32.0832 26.6738 26.6733 32.0837 19.9998 32.0837C13.3264 32.0837 7.9165 26.6738 7.9165 20.0003Z" fill="white"/>
<path fill-rule="evenodd" clip-rule="evenodd" d="M7.91663 20C7.91663 19.6548 8.19645 19.375 8.54163 19.375H31.4583C31.8035 19.375 32.0833 19.6548 32.0833 20C32.0833 20.3452 31.8035 20.625 31.4583 20.625H8.54163C8.19645 20.625 7.91663 20.3452 7.91663 20Z" fill="white"/>
<path fill-rule="evenodd" clip-rule="evenodd" d="M16.0418 20C16.1251 23.8587 17.5259 27.5655 20 30.5101C22.474 27.5655 23.8748 23.8587 23.9582 20C23.8748 16.1412 22.474 12.4344 20 9.48984C17.5259 12.4344 16.1251 16.1412 16.0418 20ZM20 8.54163L19.5385 8.12012C16.5703 11.3697 14.8834 15.5868 14.7918 19.9869C14.7916 19.9956 14.7916 20.0043 14.7918 20.013C14.8834 24.4132 16.5703 28.6303 19.5385 31.8798C19.6569 32.0094 19.8244 32.0833 20 32.0833C20.1755 32.0833 20.343 32.0094 20.4614 31.8798C23.4297 28.6303 25.1165 24.4132 25.2082 20.013C25.2083 20.0043 25.2083 19.9956 25.2082 19.9869C25.1165 15.5868 23.4297 11.3697 20.4614 8.12012L20 8.54163Z" fill="white"/>
</g>
<defs>
<clipPath id="clip0_1_473">
<rect width="40" height="40" fill="white"/>
</clipPath>
</defs>
</svg>
